<svg id="svg" version="1.1" xmlns="http://www.w3.org/2000/svg" xmlns:xlink="http://www.w3.org/1999/xlink" width="400" height="400" viewBox="0, 0, 400,400"><g id="svgg"><path id="path0" d="M200.000 156.250 L 200.000 162.500 193.750 162.500 L 187.500 162.500 187.500 168.750 L 187.500 175.000 181.250 175.000 L 175.000 175.000 175.000 181.250 L 175.000 187.500 181.250 187.500 L 187.500 187.500 187.500 200.000 L 187.500 212.500 200.000 212.500 L 212.500 212.500 212.500 206.250 L 212.500 200.000 225.000 200.000 L 237.500 200.000 237.500 206.250 L 237.500 212.500 243.750 212.500 L 250.000 212.500 250.000 206.250 L 250.000 200.000 256.250 200.000 L 262.500 200.000 262.500 193.750 L 262.500 187.500 256.250 187.500 L 250.000 187.500 250.000 181.250 L 250.000 175.000 231.250 175.000 L 212.500 175.000 212.500 162.500 L 212.500 150.000 206.250 150.000 L 200.000 150.000 200.000 156.250 M212.500 193.750 L 212.500 200.000 206.250 200.000 L 200.000 200.000 200.000 193.750 L 200.000 187.500 206.250 187.500 L 212.500 187.500 212.500 193.750 M200.000 256.250 L 200.000 262.500 206.250 262.500 L 212.500 262.500 212.500 256.250 L 212.500 250.000 206.250 250.000 L 200.000 250.000 200.000 256.250 " stroke="none" fill="#348c2c" fill-rule="evenodd"></path><path id="path1" d="M212.500 168.750 L 212.500 175.000 218.750 175.000 L 225.000 175.000 225.000 168.750 L 225.000 162.500 218.750 162.500 L 212.500 162.500 212.500 168.750 M250.000 181.250 L 250.000 187.500 256.250 187.500 L 262.500 187.500 262.500 181.250 L 262.500 175.000 256.250 175.000 L 250.000 175.000 250.000 181.250 M162.500 200.000 L 162.500 212.500 156.250 212.500 L 150.000 212.500 150.000 225.000 L 150.000 237.500 143.750 237.500 L 137.500 237.500 137.500 243.750 L 137.500 250.000 131.250 250.000 L 125.000 250.000 125.000 256.250 L 125.000 262.500 118.750 262.500 L 112.500 262.500 112.500 268.750 L 112.500 275.000 131.250 275.000 L 150.000 275.000 150.000 268.750 L 150.000 262.500 168.750 262.500 L 187.500 262.500 187.500 256.250 L 187.500 250.000 200.000 250.000 L 212.500 250.000 212.500 243.750 L 212.500 237.500 218.750 237.500 L 225.000 237.500 225.000 225.000 L 225.000 212.500 218.750 212.500 L 212.500 212.500 212.500 218.750 L 212.500 225.000 206.250 225.000 L 200.000 225.000 200.000 218.750 L 200.000 212.500 193.750 212.500 L 187.500 212.500 187.500 200.000 L 187.500 187.500 175.000 187.500 L 162.500 187.500 162.500 200.000 M200.000 193.750 L 200.000 200.000 206.250 200.000 L 212.500 200.000 212.500 193.750 L 212.500 187.500 206.250 187.500 L 200.000 187.500 200.000 193.750 M200.000 231.250 L 200.000 237.500 187.500 237.500 L 175.000 237.500 175.000 243.750 L 175.000 250.000 162.500 250.000 L 150.000 250.000 150.000 243.750 L 150.000 237.500 162.500 237.500 L 175.000 237.500 175.000 231.250 L 175.000 225.000 187.500 225.000 L 200.000 225.000 200.000 231.250 " stroke="none" fill="#1c6c14" fill-rule="evenodd"></path><path id="path2" d="M225.000 218.750 L 225.000 237.500 218.750 237.500 L 212.500 237.500 212.500 250.000 L 212.500 262.500 218.750 262.500 L 225.000 262.500 225.000 256.250 L 225.000 250.000 231.250 250.000 L 237.500 250.000 237.500 237.500 L 237.500 225.000 243.750 225.000 L 250.000 225.000 250.000 218.750 L 250.000 212.500 243.750 212.500 L 237.500 212.500 237.500 206.250 L 237.500 200.000 231.250 200.000 L 225.000 200.000 225.000 218.750 M187.500 256.250 L 187.500 262.500 193.750 262.500 L 200.000 262.500 200.000 256.250 L 200.000 250.000 193.750 250.000 L 187.500 250.000 187.500 256.250 " stroke="none" fill="#f4bc5c" fill-rule="evenodd"></path><path id="path3" d="M225.000 106.250 L 225.000 112.500 218.750 112.500 L 212.500 112.500 212.500 125.000 L 212.500 137.500 206.250 137.500 L 200.000 137.500 200.000 143.750 L 200.000 150.000 206.250 150.000 L 212.500 150.000 212.500 156.250 L 212.500 162.500 218.750 162.500 L 225.000 162.500 225.000 168.750 L 225.000 175.000 250.000 175.000 L 275.000 175.000 275.000 162.500 L 275.000 150.000 256.250 150.000 L 237.500 150.000 237.500 131.250 L 237.500 112.500 250.000 112.500 L 262.500 112.500 262.500 118.750 L 262.500 125.000 268.750 125.000 L 275.000 125.000 275.000 118.750 L 275.000 112.500 268.750 112.500 L 262.500 112.500 262.500 106.250 L 262.500 100.000 243.750 100.000 L 225.000 100.000 225.000 106.250 " stroke="none" fill="#54544c" fill-rule="evenodd"></path><path id="path4" d="M250.000 131.250 L 250.000 137.500 256.250 137.500 L 262.500 137.500 262.500 143.750 L 262.500 150.000 268.750 150.000 L 275.000 150.000 275.000 156.250 L 275.000 162.500 281.250 162.500 L 287.500 162.500 287.500 150.000 L 287.500 137.500 281.250 137.500 L 275.000 137.500 275.000 131.250 L 275.000 125.000 262.500 125.000 L 250.000 125.000 250.000 131.250 " stroke="none" fill="#1d1d1d" fill-rule="evenodd"></path><path id="path5" d="M250.000 212.500 L 250.000 225.000 243.750 225.000 L 237.500 225.000 237.500 231.250 L 237.500 237.500 243.750 237.500 L 250.000 237.500 250.000 231.250 L 250.000 225.000 256.250 225.000 L 262.500 225.000 262.500 212.500 L 262.500 200.000 256.250 200.000 L 250.000 200.000 250.000 212.500 " stroke="none" fill="#b4741c" fill-rule="evenodd"></path><path id="path6" d="M200.000 268.750 L 200.000 275.000 193.750 275.000 L 187.500 275.000 187.500 281.250 L 187.500 287.500 206.250 287.500 L 225.000 287.500 225.000 281.250 L 225.000 275.000 218.750 275.000 L 212.500 275.000 212.500 268.750 L 212.500 262.500 206.250 262.500 L 200.000 262.500 200.000 268.750 " stroke="none" fill="#6c646c" fill-rule="evenodd"></path><path id="path7" d="M237.500 131.250 L 237.500 150.000 250.000 150.000 L 262.500 150.000 262.500 143.750 L 262.500 137.500 256.250 137.500 L 250.000 137.500 250.000 131.250 L 250.000 125.000 256.250 125.000 L 262.500 125.000 262.500 118.750 L 262.500 112.500 250.000 112.500 L 237.500 112.500 237.500 131.250 " stroke="none" fill="#64645c" fill-rule="evenodd"></path><path id="path8" d="M212.500 206.250 L 212.500 212.500 206.250 212.500 L 200.000 212.500 200.000 218.750 L 200.000 225.000 187.500 225.000 L 175.000 225.000 175.000 231.250 L 175.000 237.500 162.500 237.500 L 150.000 237.500 150.000 243.750 L 150.000 250.000 162.500 250.000 L 175.000 250.000 175.000 243.750 L 175.000 237.500 187.500 237.500 L 200.000 237.500 200.000 231.250 L 200.000 225.000 206.250 225.000 L 212.500 225.000 212.500 218.750 L 212.500 212.500 218.750 212.500 L 225.000 212.500 225.000 206.250 L 225.000 200.000 218.750 200.000 L 212.500 200.000 212.500 206.250 " stroke="none" fill="#34342c" fill-rule="evenodd"></path></g></svg>